#!OML:ASF F:\VICON\USERDATA\INSTALL\rory3\rory3.ASF
:FULLY-SPECIFIED
:DEGREES
47
root -0.9106448995606823 18.27670657902317 8.383308170195257 3.7479818397083515 1.5344371679081297 -3.543121338666385
lfemur -36.53481221397466 4.368881472233058 -17.163062665839778
ltibia 106.45429944558788
lfoot 10.697850898392192 -11.796558998578512
ltoes -5.983733584531079
rfemur -6.664905194254095 5.415111509056498 32.33736964495144
rtibia 48.377775625520364
rfoot 8.214095628991789 -8.407207890493964
rtoes -4.496266043831522
lowerback 16.767388568310608 0.8119766682349532 3.9875970437651445
upperback -0.5338531297593874 1.5671382823540672 2.468602527207975
thorax -9.30264533770806 0.14596927093365564 1.4829486730394517
lowerneck -17.901399171137385 -3.0578118398578855 -2.9488965874519515
upperneck 12.39623100451104 -5.5475555510828745 2.4769941828600137
head 7.317362887614131 -2.88367227513882 0.33260507942171824
lclavicle -6.516140898453604e-16 -4.8741375192067156e-15
lhumerus -53.05057357407974 -12.580991687126597 97.69518065204235
lradius 105.09015420074375
lwrist 30.662524739049804
lhand -31.014412745672654 0.4195499247068529
lfingers 7.125019999999998
lthumb -4.452676120103919 30.11343380639302
rclavicle -6.488456915772269e-16 -4.8614716752650645e-15
rhumerus -43.049260982999215 15.487596803342655 -100.32672412352774
rradius 104.83096984903676
rwrist -15.070584724841279
rhand -18.534584401483826 38.10847446692316
rfingers 7.125019999999998
rthumb 7.780369771334012 8.20438637729408
48
root -0.8799003968246984 18.197814212410737 9.626861165029508 3.933591784943591 1.1138611399224403 -3.4985327111906823
lfemur -38.34311681385078 3.9781941464577533 -16.823744276038084
ltibia 105.26356632767428
lfoot 10.669089778944246 -11.614888455358923
ltoes -7.376593522814289
rfemur -5.493467865026828 5.395401332217208 32.489812542534054
rtibia 48.12637634898434
rfoot 7.996883073141163 -8.412216969182225
rtoes -8.238431145966018
lowerback 16.631742151811885 1.014568268462614 4.519322567093386
upperback -0.6597631855345216 1.924884968796459 2.332149385953221
thorax -9.357415090429228 0.2957096990056023 1.069785914584686
lowerneck -17.62923716667532 -3.344756972854607 -2.974975239372271
upperneck 12.523063340726958 -5.931000456304865 2.7030833791866793
head 7.292002968292088 -3.0226790433847213 0.3346820524744147
lclavicle -6.516160578862038e-16 -4.87414090290986e-15
lhumerus -54.588521740960196 -11.966919126761333 97.5780882274106
lradius 103.9051080638449
lwrist 30.487726785673086
lhand -31.099736008128925 0.40171564787964564
lfingers 7.125019999999998
lthumb -4.49647732113987 30.117184733580245
rclavicle -6.48843344862286e-16 -4.8614700748534806e-15
rhumerus -44.01213830497693 14.840672597226506 -99.90501094126394
rradius 107.1614774383437
rwrist -16.09326396628819
rhand -18.476474413452433 38.022105860000785
rfingers 7.125019999999998
rthumb 7.8204747509688985 8.053670775973378
49
root -0.8458182937316558 18.12246447797321 10.764121852241699 4.136587456996307 0.7079407474436519 -3.4120738545085594
lfemur -38.68511300560347 2.2137102994561055 -16.257558424280255
ltibia 100.77528270610637
lfoot 12.609851534257205 -11.275908236781682
ltoes -8.8857451754017
rfemur -4.4681840185230275 5.364707491882332 32.54949549770332
rtibia 47.41531527511649
rfoot 8.14648401672157 -8.316917719055889
rtoes -12.192777497548954
lowerback 16.283372719423266 1.1992407632396063 4.9782473083023095
upperback -0.8106428885903689 2.214874280825461 2.2233484409654882
thorax -9.364979252369768 0.4472341388810836 0.5969489450989683
lowerneck -17.523416976966132 -3.620949458149483 -2.9933459015919603
upperneck 12.452749765279401 -6.297493334014478 2.9114549624419928
head 7.240558030001288 -3.1295486038761178 0.3585970990223438
lclavicle -6.516188935024053e-16 -4.874140955212619e-15
lhumerus -56.143119282877024 -11.35522634297692 97.31497703560717
lradius 103.03720431573213
lwrist 30.339577397837267
lhand -31.19697311274552 0.32431730743514486
lfingers 7.125019999999998
lthumb -4.548072948529638 30.0897796398347
rclavicle -6.488441002216039e-16 -4.861470652017363e-15
rhumerus -45.14266629517133 14.224202462616377 -99.47829815316081
rradius 109.51633989483734
rwrist -16.9682052646558
rhand -18.412959509725777 38.00409853891525
rfingers 7.125019999999998
rthumb 7.871165273169456 7.958894396599977
50
root -0.8107556784216469 18.06285490712541 11.860080763042316 4.317349095891369 0.5030176161558596 -3.218797729900414
lfemur -37.32068880791441 -0.8819906309268988 -15.290032709502164
ltibia 93.1809500612128
lfoot 12.24212591659375 -11.309501911630322
ltoes -10.482332242753527
rfemur -3.1167467772874033 5.438275454066227 32.76067059868278
rtibia 45.747133572913185
rfoot 7.8497042504136765 -8.117370400522539
rtoes -14.906060367654026
lowerback 15.76498485980256 1.3592596698556165 5.2964948935382745
upperback -0.9485555422193916 2.4442635182974035 2.132493516890113
thorax -9.309432613329397 0.6025737608399767 0.11702322855109032
lowerneck -17.583448728503733 -3.878666221951095 -3.0081650278213137
upperneck 12.257365487380827 -6.625607082458776 3.177622679608868
head 7.188088760484644 -3.204493688648511 0.38750755122259617
lclavicle -6.5162263978287525e-16 -4.874141946237076e-15
lhumerus -57.5584120442184 -10.748049610996244 96.97160685221901
lradius 102.51954539711764
lwrist 29.945234308024464
lhand -31.244653704464632 0.2670240283390175
lfingers 7.125019999999998
lthumb -4.570490332400838 30.07529150271834
rclavicle -6.48843781974636e-16 -4.861470405519786e-15
rhumerus -46.3649400376715 13.59844119437335 -99.13447011866816
rradius 111.77394598312613
rwrist -17.586646183342673
rhand -18.35905217506629 38.039901889670745
rfingers 7.125019999999998
rthumb 7.898787315303075 7.891240631752254
51
root -0.7799381834250065 18.01584268924876 12.657229846676776 4.444728688107803 0.5112897962644402 -3.0023902362229493
lfemur -34.87820495626501 -3.911351606330493 -14.495953849013794
ltibia 82.99217592326406
lfoot 13.256395377014137 -10.966940164572119
ltoes -12.144760234024195
rfemur -3.212531034843991 5.1713980548505925 32.46642181895007
rtibia 43.060079446649425
rfoot 8.147759513398002 -7.745842098543052
rtoes -15.310846384394557
lowerback 15.208304758210488 1.493399593745563 5.48332169667602
upperback -1.0958714653050483 2.6457735540431644 2.0582168145416198
thorax -9.282930384710372 0.7551274265702119 -0.32932442179570354
lowerneck -17.781564957683262 -4.092085187070752 -3.0187775884093626
upperneck 12.151469798521486 -6.909282265839021 3.4452044323892226
head 7.144428035931839 -3.232348107151698 0.4226369650255006
lclavicle -6.516249848371821e-16 -4.874144760519106e-15
lhumerus -58.74201422292917 -10.055400617137456 96.5435714717998
lradius 102.32891057441988
lwrist 29.172730900876957
lhand -31.238633874525586 0.28596001866171894
lfingers 7.125019999999998
lthumb -4.569604820667353 30.10793717653858
rclavicle -6.488436892701073e-16 -4.861470335913921e-15
rhumerus -47.45005465796976 13.007100250992123 -98.86263521158979
rradius 113.91578887390838
rwrist -17.914155843252644
rhand -18.328948014812404 37.956522947595026
rfingers 7.125019999999998
rthumb 7.91765749529425 7.783080614144541
